<svg t="1639560163268" class="icon" viewBox="0 0 1024 1024" version="1.1" xmlns="http://www.w3.org/2000/svg" p-id="4728" width="200" height="200"><path d="M512 1024c-282.304 0-512-229.696-512-512s229.696-512 512-512 512 229.696 512 512-229.696 512-512 512zM512 64C264.96 64 64 264.96 64 512c0 246.976 200.96 448 448 448 246.976 0 448-201.024 448-448 0-247.04-201.024-448-448-448z" p-id="4729" fill="#ffffff"></path><path d="M784 544h-544a32 32 0 0 1 0-64h544a32 32 0 0 1 0 64z" p-id="4730" fill="#ffffff"></path><path d="M512 816a32 32 0 0 1-32-32v-544a32 32 0 0 1 64 0v544a32 32 0 0 1-32 32z" p-id="4731" fill="#ffffff"></path></svg>