<?xml version="1.0" standalone="no"?><!DOCTYPE svg PUBLIC "-//W3C//DTD SVG 1.1//EN" "http://www.w3.org/Graphics/SVG/1.1/DTD/svg11.dtd"><svg t="1639547114869" class="icon" viewBox="0 0 1024 1024" version="1.1" xmlns="http://www.w3.org/2000/svg" p-id="23555" xmlns:xlink="http://www.w3.org/1999/xlink" width="200" height="200"><defs><style type="text/css"></style></defs><path d="M484 428v224c0 15.5 12.5 28 28 28s28-12.5 28-28V428c0-15.5-12.5-28-28-28s-28 12.5-28 28z" p-id="23556" fill="#952525"></path><path d="M512 764m-28 0a28 28 0 1 0 56 0 28 28 0 1 0-56 0Z" p-id="23557" fill="#952525"></path><path d="M952.6 825.1l-393.2-681c-10.5-18.2-29-27.4-47.4-27.4s-36.9 9.1-47.4 27.4l-393.2 681c-21.1 36.5 5.3 82.1 47.4 82.1h786.4c42.1 0 68.5-45.6 47.4-82.1z m-832.7 28L512 174l393.2 677.2-785.3 1.9z" p-id="23558" fill="#952525"></path></svg>