<svg fill="none" width="62" height="87" viewBox="0 0 62 87" xmlns="http://www.w3.org/2000/svg"><g clip-path="url(#clip0_26161_83707)"><path d="M-0.00195312 26.9479L30.5756 16.9648V86.0759C8.73428 76.8606 -0.00195312 59.1989 -0.00195312 49.2159V26.9465V26.9479Z" fill="#48FF91"></path><path d="M61.1556 26.9479L30.5781 16.9648V86.0759C52.4194 76.8606 61.1556 59.1989 61.1556 49.2172V26.9479Z" fill="url(#paint0_linear_26161_83707)"></path><path d="M12.0561 0.34082H16.3227V2.73096C17.7214 0.582458 19.33 0.34082 21.6857 0.34082V4.56603H20.6128C17.7905 4.56603 16.4387 5.89434 16.4387 8.52474V13.0151H12.0547V0.34082H12.0561Z" fill="#48FF91"></path><path d="M35.9252 13.0137H31.5413V11.8055C30.5844 12.917 29.2795 13.3989 27.6709 13.3989C24.6166 13.3989 22.8906 11.5887 22.8906 8.25687V0.34082H27.2746V7.2696C27.2746 8.83818 28.0437 9.75502 29.3486 9.75502C30.6534 9.75502 31.5413 8.86165 31.5413 7.34141V0.34082H35.9252V13.0151V13.0137Z" fill="#48FF91"></path><path d="M36.9961 9.10059H41.1012C41.289 10.0174 41.9172 10.4027 43.4319 10.4027C44.6677 10.4027 45.3913 10.1141 45.3913 9.58249C45.3913 9.17101 45.0406 8.9059 44.0395 8.68912L40.7284 7.94073C38.5136 7.43536 37.3938 6.15538 37.3938 4.10215C37.3938 1.39719 39.3752 -0.00292969 43.2221 -0.00292969C47.0689 -0.00292969 48.9578 1.36129 49.2851 4.28303H45.2049C45.1358 3.51117 44.3419 3.03894 43.037 3.03894C41.989 3.03894 41.3124 3.37585 41.3124 3.88398C41.3124 4.31755 41.7543 4.65584 42.6421 4.87539L46.1162 5.72043C48.4 6.27412 49.4977 7.43398 49.4977 9.31738C49.4977 11.9257 47.236 13.4708 43.3905 13.4708C39.545 13.4708 37.0016 11.8056 37.0016 9.10059H36.9975H36.9961Z" fill="#48FF91"></path><path d="M61.17 4.28158V0.34082H50.3516V4.28435H53.5798V13.0137H57.9404V4.28158H61.17Z" fill="#48FF91"></path><path d="M10.8366 4.28158V0.34082H0.0195312V4.28435H3.24781V13.0137H7.60833V4.28158H10.8366Z" fill="#48FF91"></path></g><defs><linearGradient id="paint0_linear_26161_83707" x1="29.1518" y1="94.7238" x2="54.3898" y2="3.84876" gradientUnits="userSpaceOnUse"><stop offset="0.26" stop-color="#48FF91"></stop><stop offset="0.66" stop-color="#0094FF"></stop><stop offset="0.8" stop-color="#0038FF"></stop><stop offset="0.89" stop-color="#0500FF"></stop></linearGradient><clipPath id="clip0_26161_83707"><rect width="61.1691" height="86.0768" fill="white"></rect></clipPath></defs></svg>