<?xml version="1.0" standalone="no"?><!DOCTYPE svg PUBLIC "-//W3C//DTD SVG 1.1//EN" "http://www.w3.org/Graphics/SVG/1.1/DTD/svg11.dtd"><svg t="1639628755084" class="icon" viewBox="0 0 1024 1024" version="1.1" xmlns="http://www.w3.org/2000/svg" p-id="23263" xmlns:xlink="http://www.w3.org/1999/xlink" width="200" height="200"><defs><style type="text/css"></style></defs><path d="M921.6 977.472H102.4a25.6 25.6 0 1 1 0-51.2h819.2a25.6 25.6 0 1 1 0 51.2zM512 46.528a25.6 25.6 0 0 1 25.6 25.6v768a25.6 25.6 0 1 1-51.2 0v-768a25.6 25.6 0 0 1 25.6-25.6z" p-id="23264" fill="#ffffff"></path><path d="M512 46.528a25.6 25.6 0 0 1 18.112 43.712L168.064 452.288a25.6 25.6 0 0 1-36.224-36.224L493.888 54.08A25.472 25.472 0 0 1 512 46.592z" p-id="23265" fill="#ffffff"></path><path d="M512 46.528a25.6 25.6 0 0 1 18.112 7.488l362.048 362.048a25.6 25.6 0 0 1-36.224 36.224L493.888 90.24A25.6 25.6 0 0 1 512 46.528z" p-id="23266" fill="#ffffff"></path></svg>